<svg aria-hidden="true" style="position:absolute;width:0;height:0;overflow:hidden" xmlns="http://www.w3.org/2000/svg">
  <defs>
    <symbol id="paper" viewBox="0 0 32 32">
      <path fill="#4985ff" style="fill:var(--color1, #4985ff)" d="M21.624 10.182h-8.727c-.107 0-.194.087-.194.194v2.909h.388V10.57h8.339v10.667c.002.102-.077.187-.179.194-.017 0-.033-.001-.05-.002-.034-.001-.069-.002-.102-.005-.003 0-.006 0-.009-.001-.633-.069-1.134-.569-1.204-1.202 0-.003-.001-.006-.001-.008-.004-.041-.007-.089-.007-.138v-.389c0-.107-.087-.194-.194-.194H13.09v-3.491h-.388v3.491H11.15c-.107 0-.194.087-.194.194v.388c.001.964.782 1.744 1.745 1.745h8.553c.315-.008.565-.267.562-.582V10.376c0-.107-.087-.194-.194-.194zM12.703 21.43c-.749-.001-1.357-.608-1.358-1.358v-.194h8.145v.194c0 .064.004.128.011.191.002.017.005.033.007.05.006.047.014.094.024.14.003.016.008.032.012.048.012.047.025.093.041.138.004.013.009.026.014.039.018.048.038.095.06.141.005.009.009.019.014.028.024.049.051.097.08.143.004.006.007.013.011.019.032.049.066.097.102.143l.006.008c.042.053.088.104.136.152.042.041.085.08.13.116l-7.436-.001z"/>
      <path fill="#4985ff" style="fill:var(--color1, #4985ff)" d="M16.582 15.612c.051 0 .101-.02.137-.057l.776-.776c.076-.076.076-.199 0-.274l-.776-.776c-.035-.035-.084-.057-.137-.057h-5.43c-.536 0-.97.434-.97.97s.434.97.97.97h5.43zm-.05-1.521.552.552-.552.552-.138-.552.138-.552zm-4.799-.03h4.406l-.097.388h-3.921v.388h3.921l.097.388h-4.406v-1.164zm-1.163.581c0-.321.26-.582.582-.582h.194v1.164h-.194c-.321 0-.582-.26-.582-.582zm4.072 3.879h5.818c.107 0 .194-.087.194-.194v-5.818c0-.107-.087-.194-.194-.194-.054 0-.102.022-.137.057l-5.818 5.818c-.076.076-.076.199 0 .274.036.036.086.057.137.057zm5.624-5.544v.502h-.388v.388h.388v.388h-.388v.388h.388v.388h-.388v.388h.388v.388h-.388v.388h.388v.388h-.388v.388h.388v.388h-.388v.388h.388v.388h-.388v-.388h-.388v.388h-.388v-.388h-.388v.388h-.388v-.388h-.388v.388h-.388v-.388h-.388v.388h-.388v-.388h-.388v.388h-.388v-.388h-.388v.388h-.502l5.156-5.156z"/>
      <path fill="#4985ff" style="fill:var(--color1, #4985ff)" d="M17.452 17.358h1.845c.107 0 .194-.087.194-.194v-1.845c0-.107-.087-.194-.194-.194-.054 0-.102.022-.137.057l-1.845 1.845c-.076.076-.076.199 0 .274.036.036.086.057.137.057zm1.651-1.571v1.183H17.92l1.183-1.183zm0-4.442h-3.879v.388h3.879v-.388zm.582.776h-5.042v.388h5.042v-.388zm-5.042 4.073h-1.164v.388h1.164v-.388zm-.388.776h-.776v.388h.776v-.388z"/>
    </symbol>
    <symbol id="code" viewBox="0 0 37 32">
      <path fill="#4985ff" style="fill:var(--color1, #4985ff)" d="M14.568 23.279c-.139 0-.28-.047-.395-.143l-3.945-3.299c-.136-.114-.214-.28-.214-.456s.079-.342.214-.456l3.945-3.299c.256-.215.641-.184.859.067s.187.63-.069.844l-3.399 2.844 3.399 2.844c.257.215.287.593.069.844-.121.139-.292.211-.465.211zm7.787 0c-.172 0-.344-.072-.464-.211-.218-.252-.187-.63.069-.844l3.399-2.844-3.399-2.844c-.256-.214-.287-.592-.069-.844s.603-.282.859-.067l3.945 3.299c.136.114.214.28.214.456s-.078.342-.214.456l-3.945 3.299c-.115.096-.255.143-.395.143zm-5.29 2.475c-.042 0-.084-.004-.127-.013-.329-.068-.54-.386-.471-.709l2.458-11.466c.069-.323.393-.531.722-.462s.54.386.471.709L17.66 25.278c-.061.282-.314.476-.596.476z"/>
      <path fill="#4985ff" style="fill:var(--color1, #4985ff)" d="M32.83 32H4.093C1.836 32 0 30.197 0 27.98V4.021C0 1.804 1.836.001 4.093.001H32.83c2.257 0 4.093 1.804 4.093 4.02V27.98c0 2.217-1.836 4.02-4.093 4.02zM4.093 1.198c-1.585 0-2.874 1.266-2.874 2.823V27.98c0 1.556 1.289 2.823 2.874 2.823H32.83c1.584 0 2.874-1.266 2.874-2.823V4.021c0-1.556-1.289-2.823-2.874-2.823H4.093z"/>
      <path fill="#4985ff" style="fill:var(--color1, #4985ff)" d="M36.313 9.588H.609c-.337 0-.61-.268-.61-.599s.273-.599.61-.599h35.704c.337 0 .61.268.61.599s-.273.599-.61.599zM10.415 6.723c-1.063 0-1.929-.85-1.929-1.895s.866-1.895 1.929-1.895c1.064 0 1.929.85 1.929 1.895s-.865 1.895-1.929 1.895zm0-2.593c-.391 0-.71.313-.71.697s.319.697.71.697c.392 0 .71-.313.71-.697s-.318-.697-.71-.697zM4.489 6.705c-1.064 0-1.929-.85-1.929-1.895s.865-1.895 1.929-1.895 1.929.85 1.929 1.895-.865 1.895-1.929 1.895zm0-2.593c-.391 0-.71.313-.71.697s.319.697.71.697c.392 0 .71-.313.71-.697s-.318-.697-.71-.697zm11.853 2.629c-1.063 0-1.929-.85-1.929-1.895s.865-1.895 1.929-1.895 1.929.85 1.929 1.895-.865 1.895-1.929 1.895zm0-2.592c-.391 0-.71.313-.71.697s.318.697.71.697c.392 0 .71-.313.71-.697s-.318-.697-.71-.697z"/>
    </symbol>
  </defs>
</svg>
