<svg width="30" height="26" viewBox="0 0 30 26" fill="none" xmlns="http://www.w3.org/2000/svg">
<g filter="url(#filter0_d_81153_4)">
<path d="M11.8364 18.9138C11.7231 18.9138 11.609 18.8755 11.5158 18.7976L8.31084 16.1169C8.20029 16.0243 8.13672 15.8891 8.13672 15.7463C8.13672 15.6038 8.20056 15.4686 8.31084 15.376L11.5158 12.6953C11.7239 12.521 12.0365 12.5457 12.214 12.7501C12.3911 12.9548 12.3663 13.2619 12.1579 13.4359L9.39594 15.7463L12.1579 18.0567C12.3663 18.231 12.3911 18.5381 12.214 18.7425C12.1159 18.8557 11.9766 18.9138 11.8364 18.9138Z" fill="#4985FF"/>
<path d="M18.1635 18.9138C18.0234 18.9138 17.8841 18.8557 17.7862 18.7425C17.6088 18.5381 17.6339 18.231 17.8421 18.0567L20.604 15.7463L17.8421 13.4359C17.6339 13.2619 17.6088 12.9548 17.7862 12.7501C17.9634 12.5457 18.2763 12.521 18.4841 12.6953L21.6891 15.376C21.7996 15.4686 21.8632 15.6038 21.8632 15.7463C21.8632 15.8891 21.7996 16.0243 21.6891 16.1169L18.4841 18.7976C18.391 18.8755 18.2768 18.9138 18.1635 18.9138V18.9138Z" fill="#4985FF"/>
<path d="M13.8652 20.9248C13.8312 20.9248 13.7969 20.9212 13.7624 20.9142C13.4949 20.8588 13.3235 20.6006 13.3799 20.3378L15.3773 11.022C15.4337 10.7592 15.6963 10.5909 15.9641 10.6463C16.2317 10.7017 16.403 10.9596 16.3466 11.2227L14.3492 20.5384C14.3 20.7676 14.0943 20.9248 13.8652 20.9248V20.9248Z" fill="#4985FF"/>
<path d="M26.6745 26H3.32547C1.49193 26 0 24.5347 0 22.7334V3.26663C0 1.46553 1.49193 0 3.32547 0H26.6745C28.5081 0 30 1.46553 30 3.26663V22.7334C30 24.5347 28.5081 26 26.6745 26ZM3.32547 0.973038C2.03807 0.973038 0.990566 2.002 0.990566 3.26663V22.7334C0.990566 23.998 2.03807 25.027 3.32547 25.027H26.6745C27.9619 25.027 29.0094 23.998 29.0094 22.7334V3.26663C29.0094 2.002 27.9619 0.973038 26.6745 0.973038H3.32547Z" fill="#4985FF"/>
<path d="M29.5047 7.79042H0.495283C0.221661 7.79042 0 7.57268 0 7.3039C0 7.03539 0.221661 6.81738 0.495283 6.81738H29.5047C29.7783 6.81738 30 7.03539 30 7.3039C30 7.57268 29.7783 7.79042 29.5047 7.79042Z" fill="#4985FF"/>
<path d="M8.46191 5.46211C7.59793 5.46211 6.89453 4.77116 6.89453 3.92246C6.89453 3.0735 7.59793 2.38281 8.46191 2.38281C9.32617 2.38281 10.0293 3.0735 10.0293 3.92246C10.0293 4.77116 9.32617 5.46211 8.46191 5.46211ZM8.46191 3.35585C8.14407 3.35585 7.8851 3.60997 7.8851 3.92246C7.8851 4.23495 8.14407 4.48907 8.46191 4.48907C8.78003 4.48907 9.03873 4.23495 9.03873 3.92246C9.03873 3.60997 8.78003 3.35585 8.46191 3.35585Z" fill="#4985FF"/>
<path d="M3.64746 5.44746C2.7832 5.44746 2.08008 4.75678 2.08008 3.90781C2.08008 3.05885 2.7832 2.36816 3.64746 2.36816C4.51171 2.36816 5.21484 3.05885 5.21484 3.90781C5.21484 4.75678 4.51171 5.44746 3.64746 5.44746ZM3.64746 3.3412C3.32962 3.3412 3.07064 3.59559 3.07064 3.90781C3.07064 4.2203 3.32962 4.47442 3.64746 4.47442C3.96558 4.47442 4.22427 4.2203 4.22427 3.90781C4.22427 3.59559 3.96558 3.3412 3.64746 3.3412Z" fill="#4985FF"/>
<path d="M13.278 5.47698C12.4141 5.47698 11.7109 4.78629 11.7109 3.93733C11.7109 3.08863 12.4141 2.39795 13.278 2.39795C14.1423 2.39795 14.8454 3.08863 14.8454 3.93733C14.8454 4.78629 14.1423 5.47698 13.278 5.47698ZM13.278 3.37072C12.9602 3.37072 12.7015 3.62484 12.7015 3.93733C12.7015 4.24982 12.9602 4.50394 13.278 4.50394C13.5962 4.50394 13.8549 4.24982 13.8549 3.93733C13.8549 3.62484 13.5962 3.37072 13.278 3.37072Z" fill="#4985FF"/>
</g>
<defs>
<filter id="filter0_d_81153_4" x="-4" y="0" width="38" height="34" filterUnits="userSpaceOnUse" color-interpolation-filters="sRGB">
<feFlood flood-opacity="0" result="BackgroundImageFix"/>
<feColorMatrix in="SourceAlpha" type="matrix" values="0 0 0 0 0 0 0 0 0 0 0 0 0 0 0 0 0 0 127 0" result="hardAlpha"/>
<feOffset dy="4"/>
<feGaussianBlur stdDeviation="2"/>
<feComposite in2="hardAlpha" operator="out"/>
<feColorMatrix type="matrix" values="0 0 0 0 0 0 0 0 0 0 0 0 0 0 0 0 0 0 0.25 0"/>
<feBlend mode="normal" in2="BackgroundImageFix" result="effect1_dropShadow_81153_4"/>
<feBlend mode="normal" in="SourceGraphic" in2="effect1_dropShadow_81153_4" result="shape"/>
</filter>
</defs>
</svg>
